<svg width="24" height="24" viewBox="0 0 24 24" fill="none" xmlns="http://www.w3.org/2000/svg">
<circle cx="11.2632" cy="19.5426" r="1.48" fill="#1F1F1F"/>
<circle cx="17.347" cy="19.5426" r="1.47977" fill="#1F1F1F"/>
<path fill-rule="evenodd" clip-rule="evenodd" d="M7.06621 6.80266H20.8246C21.222 6.80266 21.5722 6.96599 21.7851 7.25066C21.9982 7.53532 22.0562 7.91732 21.944 8.29843L19.8406 15.4493C19.6269 16.176 18.8657 16.7455 18.1082 16.7455H10.5026C9.74354 16.7455 8.98665 16.1731 8.77976 15.4429L6.45866 7.25288L5.91977 5.35222C5.66733 4.46155 4.80533 3.70867 4.03733 3.70822L2.35378 3.70733C2.15822 3.70733 2 3.54889 2 3.35333C2.00022 3.15822 2.15844 3 2.35378 3L4.03777 3.00044C5.11355 3.00089 6.2631 3.96933 6.60043 5.15911L7.06621 6.80266ZM19.162 15.2495L21.2651 8.09888C21.3146 7.93133 21.2979 7.78044 21.2186 7.67466C21.1393 7.56866 20.9995 7.51022 20.8246 7.51022H7.26664L9.46042 15.25C9.57931 15.6695 10.0666 16.0382 10.5029 16.0382H18.1082C18.546 16.0382 19.0384 15.6695 19.162 15.2495Z" fill="#1F1F1F"/>
<line x1="11.35" y1="13.65" x2="17.65" y2="13.65" stroke="#1F1F1F" stroke-width="0.7" stroke-linecap="round"/>
<line x1="10.35" y1="10.65" x2="18.65" y2="10.65" stroke="#1F1F1F" stroke-width="0.7" stroke-linecap="round"/>
</svg>
