<svg width="24" height="24" viewBox="0 0 24 24" fill="none" xmlns="http://www.w3.org/2000/svg">
<path fill-rule="evenodd" clip-rule="evenodd" d="M12 22C17.514 22 22 17.5138 22 12C22 6.48622 17.514 2 12 2C6.486 2 2 6.48622 2 12C2 17.5138 6.48622 22 12 22ZM14.5678 20.9287C15.5498 20.06 16.3695 18.7098 16.9258 17.0553C17.7878 17.2076 18.6087 17.4016 19.3831 17.6338C18.1873 19.1976 16.5064 20.3702 14.5678 20.9287ZM17.1362 16.3736C18.0769 16.5429 18.9713 16.7611 19.8109 17.024C20.6867 15.6671 21.2187 14.0698 21.2833 12.3536H17.7076C17.6787 13.7907 17.4771 15.1516 17.1362 16.3736ZM21.2833 11.6462H17.7078C17.6789 10.2091 17.4773 8.848 17.1362 7.626C18.0771 7.45688 18.9716 7.23844 19.8111 6.97533C20.6867 8.33244 21.2187 9.93022 21.2833 11.6462ZM16.9258 6.94399C17.7878 6.79222 18.6089 6.59822 19.3831 6.36599C18.1871 4.80199 16.5062 3.62955 14.5673 3.07088C15.5496 3.93955 16.3696 5.28977 16.9258 6.94399ZM12.3538 2.73311C13.988 2.94622 15.4078 4.62134 16.2358 7.05778C15.0013 7.23978 13.6967 7.33778 12.3538 7.35289V2.73311ZM16.4462 7.74C15.1453 7.93711 13.7702 8.04489 12.3538 8.06023V11.6462H17.0005C16.972 10.2424 16.7749 8.91845 16.4462 7.74ZM12.3538 12.3538H17.0005C16.972 13.7571 16.7749 15.0813 16.4462 16.26C15.1453 16.0622 13.7702 15.9553 12.3538 15.9393V12.3538ZM16.2356 16.942C15.0013 16.7598 13.6967 16.6618 12.3538 16.6469V21.2664C13.9882 21.0533 15.4078 19.3787 16.2356 16.942ZM11.6462 21.2664C10.012 21.0533 8.59221 19.3787 7.76421 16.942C8.99866 16.7598 10.3033 16.6618 11.6462 16.6469V21.2664ZM7.55379 16.26C8.85468 16.0624 10.2298 15.9553 11.6462 15.9393V12.3538H6.99935C7.02802 13.7571 7.22513 15.0813 7.55379 16.26ZM11.6462 11.6462H6.99935C7.02802 10.2424 7.22513 8.91845 7.55379 7.74C8.85468 7.93711 10.23 8.04489 11.6462 8.06023V11.6462ZM11.6462 7.35311V2.73311C10.012 2.94622 8.59199 4.62134 7.76421 7.058C8.99866 7.24 10.3033 7.338 11.6462 7.35311ZM9.43264 3.07088C8.45042 3.93955 7.63064 5.28977 7.07442 6.94399C6.2122 6.79244 5.39131 6.59822 4.61664 6.36599C5.81287 4.80199 7.49376 3.62955 9.43264 3.07088ZM6.86403 7.62622C5.92314 7.45711 5.02869 7.23866 4.18914 6.97578C3.31314 8.33244 2.78114 9.93022 2.71647 11.6464H6.29269C6.32136 10.2093 6.52292 8.84822 6.86403 7.62622ZM2.71647 12.3538H6.29269C6.32136 13.7909 6.52292 15.1518 6.86403 16.3736C5.92314 16.5427 5.02847 16.7613 4.18892 17.0242C3.31314 15.6671 2.78114 14.0696 2.71647 12.3538ZM9.43242 20.9287C8.4502 20.06 7.63042 18.7096 7.07442 17.0553C6.2122 17.2076 5.39131 17.4016 4.61664 17.6338C5.81264 19.1976 7.49331 20.3702 9.43242 20.9287Z" fill="#1F1F1F"/>
</svg>
