<svg width="28" height="28" viewBox="0 0 28 28" fill="none" xmlns="http://www.w3.org/2000/svg">
<path d="M23.5943 15.9839C23.4291 15.9134 23.2464 15.9113 23.0807 15.9777L18.8626 17.6613C18.6482 17.7471 18.5438 17.9903 18.6293 18.2042C18.7149 18.4191 18.9583 18.5233 19.1725 18.4377L22.7393 17.0139C22.0533 19.2357 20.6782 21.1329 18.8028 22.4152C16.7062 23.8491 14.2355 24.3446 11.8459 23.8092C8.41343 23.0413 5.76463 20.2393 5.00087 16.6126C4.95291 16.3868 4.73825 16.2333 4.51062 16.2717C4.283 16.31 4.12848 16.526 4.17541 16.7523C4.9975 20.7153 7.89803 23.7833 11.6634 24.6256C12.3528 24.7796 13.0478 24.8558 13.7398 24.8558C15.6764 24.8558 17.5876 24.259 19.2749 23.1053C21.2584 21.7494 22.726 19.7617 23.4846 17.4339L24.8602 20.8807C24.9458 21.0951 25.189 21.1993 25.4034 21.1138C25.6178 21.0279 25.7222 20.7848 25.6367 20.5706L23.9536 16.352C23.8867 16.1853 23.7592 16.0547 23.5943 15.9839Z" fill="#1F1F1F"/>
<path d="M4.04647 12.0023C4.1131 12.1687 4.2404 12.2994 4.40554 12.3702C4.49084 12.4067 4.58106 12.4251 4.67102 12.4251C4.75476 12.4251 4.83849 12.409 4.91938 12.3769L9.13692 10.6933C9.35158 10.6075 9.4558 10.3643 9.37025 10.1499C9.2847 9.93551 9.041 9.83129 8.82685 9.91684L5.26082 11.3404C5.94706 9.11964 7.32214 7.2232 9.19759 5.94067C11.2942 4.50674 13.7646 4.01104 16.1541 4.5464C19.5861 5.31405 22.2352 8.11581 22.9987 11.7415C23.0464 11.9673 23.2611 12.121 23.4887 12.0826C23.7163 12.0443 23.8711 11.8283 23.8239 11.602C23.0026 7.63982 20.1018 4.57259 16.3367 3.73027C13.7182 3.14462 11.0157 3.6849 8.72574 5.25053C6.74219 6.60695 5.27456 8.59413 4.51598 10.9215L3.13935 7.47441C3.05379 7.26001 2.81035 7.15553 2.59621 7.24109C2.38181 7.3269 2.27733 7.57008 2.36288 7.78448L4.04647 12.0023Z" fill="#1F1F1F"/>
</svg>
