<svg width="24" height="24" viewBox="0 0 24 24" fill="none" xmlns="http://www.w3.org/2000/svg">
<path fill-rule="evenodd" clip-rule="evenodd" d="M11.7576 6C13.4704 6 14.8639 7.39347 14.8639 9.10627C14.8639 10.8188 13.4704 12.2123 11.7576 12.2123C10.0448 12.2123 8.65137 10.8188 8.65137 9.10627C8.65137 7.39347 10.0448 6 11.7576 6ZM11.7577 6.42447C10.279 6.42447 9.07619 7.62753 9.07619 9.1062C9.07619 10.5846 10.279 11.7877 11.7577 11.7877C13.2363 11.7877 14.4391 10.5846 14.4391 9.1062C14.4391 7.62753 13.2365 6.42447 11.7577 6.42447Z" fill="#1F1F1F"/>
<path d="M14.9639 9.10627C14.9639 7.33824 13.5257 5.9 11.7576 5.9V6.1C13.4152 6.1 14.7639 7.4487 14.7639 9.10627H14.9639ZM11.7576 12.3123C13.5257 12.3123 14.9639 10.874 14.9639 9.10627H14.7639C14.7639 10.7636 13.4152 12.1123 11.7576 12.1123V12.3123ZM8.55137 9.10627C8.55137 10.874 9.98961 12.3123 11.7576 12.3123V12.1123C10.1001 12.1123 8.75137 10.7636 8.75137 9.10627H8.55137ZM11.7576 5.9C9.98961 5.9 8.55137 7.33824 8.55137 9.10627H8.75137C8.75137 7.4487 10.1001 6.1 11.7576 6.1V5.9ZM9.17619 9.1062C9.17619 7.68275 10.3342 6.52447 11.7577 6.52447V6.32447C10.2237 6.32447 8.97619 7.57232 8.97619 9.1062H9.17619ZM11.7577 11.6877C10.3342 11.6877 9.17619 10.5294 9.17619 9.1062H8.97619C8.97619 10.6398 10.2238 11.8877 11.7577 11.8877V11.6877ZM14.3391 9.1062C14.3391 10.5294 13.1811 11.6877 11.7577 11.6877V11.8877C13.2916 11.8877 14.5391 10.6398 14.5391 9.1062H14.3391ZM11.7577 6.52447C13.1812 6.52447 14.3391 7.68275 14.3391 9.1062H14.5391C14.5391 7.57232 13.2917 6.32447 11.7577 6.32447V6.52447Z" fill="#1F1F1F"/>
<path fill-rule="evenodd" clip-rule="evenodd" d="M7.3844 18.0001C6.70413 18.0001 6 17.4898 6 16.6365C6 15.735 7.0344 13.3954 11.7575 13.3954C16.4805 13.3954 17.5149 15.7349 17.5149 16.6365C17.5149 17.4898 16.8109 18.0001 16.1305 18.0001H7.3844ZM17.0902 16.6364C17.0902 15.9057 16.1104 13.82 11.7574 13.82C7.40431 13.82 6.42458 15.9057 6.42458 16.6364C6.42458 17.2462 6.91911 17.5754 7.38431 17.5754H16.1304C16.5956 17.5754 17.0902 17.2462 17.0902 16.6364Z" fill="#1F1F1F"/>
<path d="M5.9 16.6365C5.9 17.5549 6.65938 18.1001 7.3844 18.1001V17.9001C6.74889 17.9001 6.1 17.4246 6.1 16.6365H5.9ZM11.7575 13.2954C6.99844 13.2954 5.9 15.6623 5.9 16.6365H6.1C6.1 15.8077 7.07036 13.4954 11.7575 13.4954V13.2954ZM17.6149 16.6365C17.6149 15.6621 16.5165 13.2954 11.7575 13.2954V13.4954C16.4446 13.4954 17.4149 15.8076 17.4149 16.6365H17.6149ZM16.1305 18.1001C16.8557 18.1001 17.6149 17.5549 17.6149 16.6365H17.4149C17.4149 17.4246 16.7662 17.9001 16.1305 17.9001V18.1001ZM7.3844 18.1001H16.1305V17.9001H7.3844V18.1001ZM11.7574 13.92C16.0802 13.92 16.9902 15.983 16.9902 16.6364H17.1902C17.1902 15.8284 16.1407 13.72 11.7574 13.72V13.92ZM6.52458 16.6364C6.52458 15.983 7.43454 13.92 11.7574 13.92V13.72C7.37409 13.72 6.32458 15.8284 6.32458 16.6364H6.52458ZM7.38431 17.4754C6.96105 17.4754 6.52458 17.1786 6.52458 16.6364H6.32458C6.32458 17.3139 6.87718 17.6754 7.38431 17.6754V17.4754ZM16.1304 17.4754H7.38431V17.6754H16.1304V17.4754ZM16.9902 16.6364C16.9902 17.1786 16.5537 17.4754 16.1304 17.4754V17.6754C16.6376 17.6754 17.1902 17.3139 17.1902 16.6364H16.9902Z" fill="#1F1F1F"/>
<circle cx="12" cy="12" r="9.65" stroke="black" stroke-width="0.7"/>
</svg>
