<svg width="28" height="28" viewBox="0 0 28 28" fill="none" xmlns="http://www.w3.org/2000/svg">
<path fill-rule="evenodd" clip-rule="evenodd" d="M20.8974 11.6153C20.8974 14.0241 19.9742 16.2213 18.464 17.8727L25.5443 24.9531C25.7077 25.1161 25.7077 25.3808 25.5443 25.5439C25.3813 25.7073 25.1166 25.7073 24.9535 25.5439L17.8729 18.4636C16.2214 19.9738 14.0242 20.897 11.6152 20.897C6.49718 20.897 2.3335 16.733 2.3335 11.615C2.3335 6.49702 6.49718 2.33334 11.6152 2.33334C16.7332 2.33334 20.8971 6.49702 20.8974 11.6153ZM3.16923 11.615C3.16923 16.2721 6.95802 20.0608 11.6151 20.0608C16.2721 20.0608 20.0609 16.2721 20.0609 11.615C20.0609 6.9577 16.2721 3.1689 11.6151 3.1689C6.95802 3.1689 3.16923 6.95796 3.16923 11.615Z" fill="#1F1F1F"/>
<path d="M15.6292 11.1971H12.0333V7.60068C12.0333 7.36994 11.8456 7.18301 11.6153 7.18301C11.3843 7.18301 11.1974 7.36994 11.1974 7.60068V11.1971H7.60152C7.37052 11.1971 7.18359 11.384 7.18359 11.615C7.18359 11.8455 7.37078 12.0327 7.60152 12.0327H11.1974V14.9957C11.1974 15.227 11.3846 15.4139 11.6153 15.4139C11.8458 15.4139 12.0333 15.2267 12.0333 14.9957V12.0327H15.6292C15.8604 12.0327 16.0471 11.8455 16.0471 11.615C16.0471 11.384 15.8604 11.1971 15.6292 11.1971Z" fill="#1F1F1F"/>
</svg>
